<?xml version="1.0" encoding="UTF-8"?>
<!DOCTYPE svg PUBLIC "-//W3C//DTD SVG 1.1//EN" "http://www.w3.org/Graphics/SVG/1.1/DTD/svg11.dtd">
<!-- Creator: CorelDRAW 2018 (64 Bit) -->
<svg xmlns="http://www.w3.org/2000/svg" xml:space="preserve" width="173.397mm" height="173.397mm" version="1.1" style="shape-rendering:geometricPrecision; text-rendering:geometricPrecision; image-rendering:optimizeQuality; fill-rule:evenodd; clip-rule:evenodd"
viewBox="0 0 17339.72 17339.72"
 xmlns:xlink="http://www.w3.org/1999/xlink">
 <defs>
  <style type="text/css">
   <![CDATA[
    .fil4 {fill:none}
    .fil6 {fill:#E6E7E8}
    .fil2 {fill:#E6E7E8}
    .fil1 {fill:#373435}
    .fil8 {fill:#ED3237}
    .fil0 {fill:black}
    .fil5 {fill:#AD2031}
    .fil3 {fill:#D87D37}
    .fil7 {fill:white}
   ]]>
  </style>
 </defs>
 <g id="Camada_x0020_1">
  <metadata id="CorelCorpID_0Corel-Layer"/>
  <path class="fil0" d="M8669.86 255.78c4646.59,0 8414.08,3767.49 8414.08,8414.08 0,4646.59 -3767.49,8414.08 -8414.08,8414.08 -4646.79,0 -8414.08,-3767.29 -8414.08,-8414.08 0,-4646.79 3767.29,-8414.08 8414.08,-8414.08z"/>
  <g id="_1985270045552">
   <circle class="fil1" cx="8669.83" cy="8669.83" r="8063.48"/>
   <path class="fil2" d="M16045.41 10835.83c-898.81,3210.43 -3845.97,5565.09 -7343.36,5565.09 -3497.39,0 -6444.55,-2354.66 -7343.35,-5565.09l2085.92 0c823.1,2098.9 2866.65,3585.13 5257.43,3585.13 2390.78,0 4434.34,-1486.23 5257.43,-3585.13l2085.93 0z"/>
   <path class="fil2" d="M8669.83 1044.61c3497.38,0 6444.55,2354.66 7343.35,5565.09l-2085.92 0c-823.1,-2098.9 -2866.65,-3585.13 -5257.43,-3585.13 -2390.79,0 -4434.34,1486.23 -5257.44,3585.13l-2085.92 0c898.81,-3210.43 3845.97,-5565.09 7343.36,-5565.09z"/>
   <path class="fil3" d="M6864.18 11587.16l421.3 -153.84c-17.48,784.8 726.53,557.6 735.32,-46.08 789.59,-379.48 1393.41,-563.18 1811.53,-551.12 -0.79,121.91 -7.04,241.11 -17.79,358.36l-4.31 -0.24c-646.73,-35.44 -1278.32,354.39 -1822.67,654.32 -0.02,0.01 1267.35,-561.72 1807.05,-537.39l7.35 2.96c-14.77,124.66 -34.38,247.42 -57.71,369.24 -222.79,-94.03 -909.9,130.63 -1146.5,215.22 -379.26,135.58 -828.25,329.24 -1346.17,577.17 -183.74,-216.35 -317.66,-506.01 -387.4,-888.6zm2856.33 213.95c-25.25,119.53 -53.74,238.5 -84.42,357.84 -236.74,-102.27 -908.52,122.53 -1156.2,211.08 -270.51,96.7 -576.52,222.95 -917.67,377.36 -81.15,-52.24 -156.99,-112.4 -226.88,-181.34 499.53,-238.2 933.79,-424.89 1302,-556.52 205.14,-73.34 879.36,-299.47 1083.17,-208.42zm-114.6 472.91c-48.22,180.51 -100.58,362.59 -153.4,549.47 -92.83,-66.92 -179.52,-161.05 -262.66,-278.39l-141.92 -200.31 -156.93 188.77c-272.82,328.12 -817.72,485.41 -1203.21,286.36 306.91,-137.13 584.22,-250.49 831.69,-338.95 208.24,-74.46 879.18,-300.46 1086.43,-206.95zm689.79 -1230.63c220.61,182.3 299.93,453.34 266.13,787.27 -96.38,-145.83 -209.84,-282.6 -343.11,-396.26 36.96,-143.26 62.61,-273.61 76.98,-391.01zm84.63 1167.3c-87.3,-118.92 -186.94,-229.06 -300.99,-322.89 40.19,-114.98 75.11,-223.92 104.78,-326.83 328.71,303.54 413.07,347.79 196.21,649.72zm-73.82 98.66c-56.93,73.04 -116.42,142.54 -178.46,208.48 -65.4,-71.4 -136.53,-137.42 -213.78,-195.85 44.68,-109.65 85.56,-214.96 122.66,-315.92 6.86,6 13.69,12.09 20.5,18.27 88.35,80.26 171.37,175.26 249.08,285.02zm-260.95 292.58c-121.88,119.23 -252.94,225.73 -393.2,319.46 78.87,-170.39 150.63,-332.63 215.3,-486.75 63.87,50.66 123.07,107 177.9,167.29zm-2689.17 -1194.51l210.74 -76.96c18.1,207.78 71.19,331.27 159.25,370.45 -235.41,235.41 -366.35,-55.5 -369.99,-293.49z"/>
   <path class="fil2" d="M11790.21 7804.59c108.25,1644.63 -213.03,2819.99 -963.89,3526.11 -39.43,-157.87 -473.97,-604.67 -473.97,-604.75 0,0 403.14,-372.3 914.65,-889.96 0,0 -40.45,-83.89 -121.34,-251.67 0,0 -439.44,340.69 -1318.3,1022.06 2.36,47.02 3.83,93.58 4.54,139.74 -1249.17,-58.34 -3260.94,713.36 -3756.59,916.05 1141.8,-1320.34 1366.87,-2599.16 675.2,-3836.45 213.32,1054.59 115.1,2073.54 -294.64,3056.87 -322.36,88.45 -631.31,213.25 -926.89,374.44 712.98,-1163.17 827.58,-2558.6 356.09,-3989.84l1749.45 -6.14c6.43,119.81 -50.71,360.5 -93.94,543.54l4249.63 0z"/>
   <path class="fil2" d="M7564.3 6220.87c-87.67,297.33 -330.14,605.27 -727.44,923.81 -37.64,-353.91 -133.82,-684.36 -276.23,-923.81l1003.67 0z"/>
   <path class="fil2" d="M7748.69 7804.69c-138.67,0 -208.19,0 -208.19,0 447.43,-461.33 520.76,-1088.95 220.19,-1883.04 770.28,-275.23 1448.18,-412.95 2033.51,-412.76 -411.04,-811.42 -2178.27,45.53 -2691.6,457.53 240.38,-465.53 216.57,-862.67 -73.72,-1190.85 903.43,-477.91 3052.94,-823.05 3035.8,743.8 208.76,16.57 404.56,52.38 587.23,107.81 907.99,313.71 717.71,1510.28 304,2177.51 -72.76,0 -145.33,0 -217.91,0 -106.66,-317.71 -348.18,-486.47 -724.37,-506.47 -856.38,-21.34 -1611.42,147.42 -2264.94,506.47z"/>
   <path class="fil3" d="M9944.79 10863.78c1.73,-73.81 1.28,-147.12 -1.38,-219.88 773.45,-597.42 1160.17,-896.14 1160.17,-896.14 20.53,39.89 30.81,59.84 30.81,59.84 -698.73,606.7 -1048.09,910.04 -1048.09,910.04 114.59,4.08 171.88,6.12 171.88,6.12 -10.62,85.22 -24.02,172.89 -40.17,262.96 -98.58,550.13 -300,1191 -604.28,1922.6 -58.03,-20.46 -113.53,-50.75 -167.01,-90.06 317.75,-688.7 483.78,-1340.52 498.07,-1955.48z"/>
   <path class="fil2" d="M8611.32 3187.07l21.44 0c33.35,0 60.62,27.27 60.62,60.62l0 505.62 0 438.13 0 97.43 -142.68 0 0 -97.43 0 -438.13 0 -505.62c0,-33.35 27.27,-60.62 60.62,-60.62z"/>
   <path class="fil2" d="M7897.2 4029.6c122.97,-77.81 311.17,-108.02 564.59,-90.59 -121.49,-100.44 -151.15,-241.62 -89,-423.55 40.94,-84.93 61.41,-127.4 61.41,-127.4 -437.44,115.23 -660.44,229.85 -668.97,343.82 -5.18,61.39 -0.06,98.22 15.35,110.49 -252.24,65.06 -491.63,246.14 -718.19,543.25 518.39,-201.85 901.02,-285.74 1147.87,-251.66 -67.47,-70.71 -171.83,-105.5 -313.06,-104.36z"/>
   <path class="fil2" d="M10128.69 13205.07c159.87,199.97 378.81,250.11 656.81,150.39 -303.97,-23.68 -477.91,-142.88 -521.83,-357.6 -475.28,255.22 -884.5,140.63 -1227.68,-343.76 -328.8,395.48 -797.36,520.3 -1405.67,374.43 398.76,422.79 1047.48,390.62 1350.45,-125.84 203.72,521.17 722.11,604.58 1147.92,302.38z"/>
   <path class="fil2" d="M8439.23 13413.91c-388.2,183.28 -704.33,163.85 -948.4,-58.3 -99.27,173.51 -256.83,253.31 -472.67,239.39 95.81,114.34 261.06,105.14 495.73,-27.63 294.66,278.61 728.86,181.8 925.34,-153.46z"/>
   <path class="fil4" d="M8810.72 13440.03c164.05,123.22 390.14,144.7 678.29,64.45 -86.93,266.37 -692.11,256.31 -678.29,-64.45z"/>
   <path class="fil2" d="M9935.58 13502.94c74.69,-35.97 140.17,-71.79 196.43,-107.42 78.12,124.14 265.35,163 561.67,116.62 -179.8,224.01 -585,196.35 -758.1,-9.2z"/>
   <path class="fil5" d="M8692 8217.98c205.86,177.27 353.58,369.03 449.12,645.37l65.39 189.13 -185.81 -74.36c-248.7,-99.53 -467.26,-249.97 -646.58,-444.78l0 1376.77c179.32,-194.81 397.89,-345.24 646.58,-444.78l185.81 -74.37 -65.39 189.13c-95.54,276.34 -243.26,468.11 -449.12,645.38l1370.87 0c-205.88,-177.15 -351.52,-368.64 -448.16,-645.07l-66.23 -189.46 186.43 74.35c250.25,99.78 467.12,250.46 646.7,445.8l0 -1378.74c-179.58,195.34 -396.45,346.02 -646.7,445.81l-186.43 74.34 66.23 -189.46c96.64,-276.43 242.28,-467.92 448.16,-645.06l-1370.87 0z"/>
   <g>
    <path class="fil6" d="M4149.43 9397.28c-75.78,-136.17 -139.05,-240.08 -189.81,-311.55 -66.9,-94.9 -135.09,-173.52 -204.54,-236.3 -11.57,-10.46 -16.95,-24.66 -15.23,-40.27 1.7,-15.62 10.03,-28.27 23.58,-35.91 119.81,-67.5 213.56,-160.87 282.1,-280.15 53.38,-92.31 89.08,-196.4 106.89,-312.02l-15.4 -3.81c-127.46,-31.07 -257.05,-52.97 -387.72,-64.09 -9.87,57.88 -27.31,111.71 -52.13,161.13 -41.63,82.24 -98.71,142.96 -173.21,183.65 -73.83,40.76 -210.11,60.73 -409.49,60.73l-102.58 0c-25.59,0 -46.46,-21.13 -46.46,-47.04l0 -298.21 0 -92.48 0 -298.56 0 -120.22 0 -126.74c0,-25.91 20.87,-47.04 46.46,-47.04l71.71 0c191.99,0 330.29,16.81 412.82,51.17 38.73,15.95 73.37,37.28 104.03,63.89 33.94,0.86 67.88,2.32 101.77,4.36 138.81,8.33 277.11,26.16 413.97,51.02 -40.46,-125.18 -105.65,-232.8 -195.48,-322.95 -163.11,-163.73 -383.33,-245.18 -661.92,-245.18l-522.21 0c-104.53,-1.31 -209.09,-2.63 -313.62,-3.95 -19.66,-0.25 -36.58,11.26 -43.8,29.79 -7.22,18.52 -2.61,38.6 11.94,52.02 50.59,46.67 127.03,96.2 169.82,151.8 6.62,8.61 9.81,17.99 9.81,28.91l0 576.05 0 388.49 0 10.76 0 190.11 0 438.75c21.49,37.84 48.93,73.3 82.07,106.78 39.17,39.6 83.75,73.88 130.41,103.9 57.56,37.04 118.73,67.67 182.22,92.6l0 -274.11c0,-25.91 20.87,-47.04 46.46,-47.04l55.59 0c128.91,0 220.2,17.55 274.58,52.69 54.36,35.15 115.45,91.87 182.58,171.72 64.97,75.78 136.14,177.26 213.43,303.69 3.08,5.03 6.17,10.09 9.25,15.2 0.59,0.97 1.07,1.83 1.6,2.85l119.55 232.18 11.28 21.9 120.79 237.42c0.49,0.99 0.95,1.81 1.51,2.75l75.48 126.73c0.19,0.31 0.36,0.58 0.55,0.9 11.62,18.57 18.79,30.89 22.78,38.77 0.29,0.56 0.53,1.04 0.85,1.6l106.36 190.86c8.46,15.18 23.24,23.92 40.46,23.92l440.79 0 51.28 0c19.48,0 36.1,-11.46 43.24,-29.81 7.13,-18.37 2.68,-38.21 -11.57,-51.65 -199.95,-188.7 -215.46,-97.94 -458.19,-571.83 -10.25,-19.81 -20.34,-39.23 -30.29,-58.25 -48.46,-92.78 -93.25,-176.09 -134.36,-249.93z"/>
    <path class="fil6" d="M2570.73 9143.46l-1.83 -1.84 -1.81 -1.87 -1.73 -1.76 -0.08 -0.08 -1.8 -1.88 -1.79 -1.87 -1.6 -1.68 -0.19 -0.2 -1.78 -1.89 -1.77 -1.89 -1.46 -1.55 -0.31 -0.35 -1.76 -1.9 -1.76 -1.92 -1.27 -1.4 -0.47 -0.52 -1.73 -1.92 -1.73 -1.93 -1.09 -1.23 -0.63 -0.71 -1.72 -1.95 -1.7 -1.94 -0.89 -1.03 -0.81 -0.93 -3.38 -3.93 -0.67 -0.81 -1 -1.18 -3.34 -3.97 -0.44 -0.53 -1.2 -1.46 -1.65 -2.01 -1.63 -2 -0.19 -0.25 -3.06 -3.79 -1.56 -1.95 -0.05 -0.08 -1.61 -2.03 -1.59 -2.06 -1.26 -1.61 -0.33 -0.43 -1.58 -2.05 -1.56 -2.06 -0.96 -1.26 -0.61 -0.81 -1.55 -2.08 -1.55 -2.09 -0.64 -0.87 -0.89 -1.21 -1.53 -2.1 -6.02 -8.45 -2.95 -4.26 -1.14 -1.67 -0.33 -0.47 -2.89 -4.31 -0.79 -1.18 -3.49 -5.32 -0.43 -0.66 -3.77 -5.91 -0.07 -0.11 -3.76 -6.06 -0.29 -0.46 -1.34 -2.22 -2.04 -3.39 -0.64 -1.07 -1.32 -2.25 -1.31 -2.25 -0.32 -0.54 -0.99 -1.71 -1.29 -2.26 -1.22 -2.17 -14.23 -25.05 0 -1.98c-37.79,-76.76 -56.66,-160.22 -56.66,-250.45 0,-88.61 18.9,-171.05 56.66,-247.3l0 -495.03c-11.69,7.16 -23.28,14.47 -34.77,21.9 -300.34,194.7 -450.15,434.85 -450.15,720.43 0,179.83 65.71,346.79 196.48,501.31 105.04,123.51 239.92,225.61 404.61,306.57 41.35,20.34 84.58,39.33 129.68,57 81.81,32.04 170.16,58.24 265.02,78.62 165.71,35.59 351.23,53.38 556.19,53.38 75.23,0 148.79,-2.01 220.65,-6.05l-95.26 -185c-2.56,-4.22 -5.14,-8.45 -7.72,-12.66 -11.23,-18.39 -22.71,-36.85 -34.38,-55.27 -19.5,0.46 -39,0.68 -58.54,0.68 -170.34,0 -325.32,-17.95 -464.78,-53.75l0 11.27 -153.17 -60.17 -4.06 -1.58 -0.95 -0.38 -3.1 -1.22 -0.2 -0.08 -3.31 -1.31 -0.52 -0.21 -2.77 -1.12 -1.27 -0.5 -2.03 -0.84 -1.97 -0.79 -1.32 -0.54 -2.69 -1.11 -0.59 -0.24 -3.29 -1.36 -0.13 -0.05 -3.15 -1.32 -0.83 -0.35 -2.44 -1.03 -1.54 -0.65 -1.74 -0.74 -2.22 -0.94 -1.04 -0.46 -2.91 -1.25 -0.36 -0.16 -3.25 -1.41 -0.33 -0.14 -2.92 -1.29 -1.02 -0.45 -2.24 -1 -1.67 -0.73 -1.58 -0.71 -2.33 -1.04 -0.91 -0.42 -3 -1.35 -0.23 -0.11 -3.24 -1.47 -0.41 -0.2 -2.82 -1.29 -1.07 -0.48 -2.15 -1.02 -1.72 -0.79 -1.49 -0.71 -2.36 -1.1 -0.87 -0.41 -2.97 -1.42 -0.24 -0.11 -3.19 -1.53 -0.42 -0.19 -2.8 -1.37 -1.02 -0.48 -2.17 -1.06 -1.65 -0.8 -1.54 -0.77 -2.26 -1.09 -0.93 -0.48 -2.87 -1.41 -0.32 -0.17 -3.17 -1.6 -0.28 -0.14 -2.89 -1.46 -0.89 -0.44 -2.28 -1.17 -3.17 -1.62 -2.07 -1.06 -1.08 -0.57 -6.3 -3.29 -0.1 -0.04 -3.04 -1.63 -0.67 -0.34 -2.47 -1.32 -1.24 -0.66 -1.89 -1.03 -1.81 -0.97 -1.32 -0.72 -2.36 -1.28 -0.77 -0.43 -9.33 -5.15 -0.91 -0.5 -2.19 -1.25 -1.46 -0.81 -1.64 -0.94 -1.99 -1.13 -1.1 -0.62 -2.52 -1.45 -0.57 -0.33 -3.06 -1.77 -0.01 -0.01 -3.07 -1.79 -0.51 -0.29 -2.57 -1.52 -1.03 -0.6 -2.03 -1.2 -1.55 -0.92 -1.51 -0.9 -2.06 -1.24 -0.98 -0.6 -2.58 -1.55 -0.47 -0.28 -3.05 -1.86 -0.04 -0.02 -2.99 -1.84 -0.55 -0.34 -2.48 -1.53 -1.04 -0.65 -1.98 -1.24 -1.54 -0.95 -1.48 -0.93 -2.03 -1.28 -0.97 -0.63 -2.53 -1.6 -0.48 -0.31 -3 -1.92 -2.53 -1.63 -0.18 -0.12 -2.34 -1.52 -0.35 -0.23 -2.16 -1.41 -0.53 -0.34 -1.99 -1.31 -0.68 -0.46 -1.81 -1.19 -0.85 -0.57 -1.66 -1.1 -0.99 -0.67 -1.51 -1.01 -1.13 -0.75 -1.35 -0.93 -1.27 -0.85 -1.23 -0.83 -1.39 -0.95 -1.1 -0.75 -1.49 -1.02 -0.98 -0.67 -1.61 -1.13 -2.58 -1.79 -0.76 -0.51 -1.81 -1.28 -0.64 -0.45 -1.93 -1.36 -0.53 -0.37 -2 -1.42 -0.46 -0.32 -2.08 -1.5 -0.36 -0.25 -2.17 -1.55 -0.27 -0.2 -2.24 -1.62 -0.2 -0.14 -2.3 -1.68 -4.96 -3.64 -0.03 -0.02 -2.42 -1.79 -0.02 -0.03 -2.38 -1.76 -0.08 -0.07 -2.32 -1.75 -0.12 -0.1 -2.28 -1.71 -0.15 -0.12 -2.24 -1.71 -0.18 -0.14 -2.2 -1.69 -0.21 -0.17 -2.18 -1.67 -0.22 -0.18 -2.16 -1.67 -0.23 -0.19 -2.13 -1.67 -0.24 -0.19 -2.12 -1.67 -0.24 -0.21 -2.12 -1.66 -0.23 -0.2 -4.68 -3.76 -2.11 -1.71 -0.21 -0.17 -2.12 -1.74 -0.18 -0.15 -6.77 -5.61 -0.08 -0.08 -4.51 -3.8 0 -0.01 -6.84 -5.88 -2.04 -1.79 -0.24 -0.19 -1.96 -1.74 -0.29 -0.25 -1.89 -1.68 -0.36 -0.32 -1.81 -1.63 -0.44 -0.37 -1.71 -1.56 -0.52 -0.45 -1.64 -1.49 -0.59 -0.54 -1.53 -1.42 -0.69 -0.61 -1.44 -1.33 -0.78 -0.71 -1.33 -1.25 -0.87 -0.81 -1.23 -1.15 -0.98 -0.91 -1.12 -1.05 -1.06 -1.02 -1.01 -0.95 -1.17 -1.12 -0.91 -0.86 -1.27 -1.22 -0.78 -0.75 -1.39 -1.35 -0.66 -0.64 -1.49 -1.45 -0.54 -0.53 -1.62 -1.59 -0.4 -0.4 -1.74 -1.72 -0.26 -0.27 -1.87 -1.86 -0.13 -0.14 -1.99 -2z"/>
    <path class="fil6" d="M3758.92 7995.97c133.78,11.38 268.89,33.7 405.29,66.96 74.15,18.07 148.69,39.4 223.61,63.93 1.12,0.37 2.26,0.69 3.4,0.97 31.49,31.83 50.43,60.64 56.85,86.44 22.9,27.84 46.5,24.17 70.8,-11.02 73.82,-176.44 110.74,-264.65 110.74,-264.65 6.36,-65.59 -419.83,-142.03 -482.21,-154.23 -157.63,-30.8 -308.35,-50.52 -452.05,-59.15 -55.92,-3.36 -110.78,-5.04 -164.57,-5.04 -158.84,0 -308.57,12.67 -449.19,37.96l0 286.05c141.46,-38.06 297.97,-57.1 469.68,-57.1 68.87,0 138.08,2.96 207.65,8.88z"/>
    <path class="fil6" d="M2965.43 10213.65l0 -417.67c-8.06,-1.63 -16.08,-3.31 -24.11,-5.03 -96.17,-20.66 -191.1,-48.05 -282.82,-83.98 -29.55,-11.57 -58.83,-23.89 -87.77,-36.96l0 543.64c0,14.63 -5.92,27.23 -17.13,36.47 -18.6,15.32 -43.52,30.64 -74.77,45.89 -2.41,1.18 -4.39,2.35 -6.58,3.92 -28.9,20.62 -33.47,40.23 -13.71,58.82l158.65 0 37.39 0 227 0 37.39 0 158.65 0c19.75,-18.59 15.19,-38.2 -13.71,-58.82 -2.2,-1.57 -4.17,-2.74 -6.59,-3.92 -31.24,-15.25 -56.16,-30.57 -74.77,-45.89 -11.21,-9.24 -17.12,-21.84 -17.12,-36.47z"/>
    <path class="fil6" d="M4367.07 9333.06c-33.89,11.63 -67.87,22.52 -101.94,32.66 41.4,74.97 81.69,150.59 121.36,226.51l12.95 24.78c49.15,-14.09 97.2,-29.51 144.13,-46.25 46.79,-12.87 69.09,-30.68 66.88,-53.44 0,0 -36.91,-88.21 -110.73,-264.65 -24.3,-35.19 -47.9,-38.86 -70.81,-11.02 -6.75,27.13 -27.36,57.6 -61.84,91.41z"/>
   </g>
   <g>
    <path class="fil6" d="M13966.41 9337.66c-26.23,0.04 -48.66,-16.56 -59.07,-43.72l-14.35 -37.44 -0.82 0 -270.43 -707.29 0.24 0 -104.21 -271.95c-5.12,3.94 -10.18,7.92 -15.24,11.95 -84.37,67.17 -162.07,150.63 -211.36,254.19 -17.73,37.27 -31.07,75.66 -40.29,115.22l268.9 678.4 0.01 0.01 305.69 771.2 -0.02 0 82.3 207.61c10.58,26.72 32.77,42.94 58.71,42.9 25.92,-0.05 48.06,-16.32 58.6,-43.05l75.39 -191.47 58.85 -149.45 112.14 -284.8 57.2 -145.28 113.48 -288.19 -402.7 0 -14.11 37.2c-10.32,27.2 -32.7,43.9 -58.91,43.96z"/>
    <path class="fil6" d="M13164.86 7086.76l-103.27 0 -56.24 0 -250.5 0 -127.01 0 -32.51 0c-19.18,0 -35.44,13.63 -40.98,34.36 -5.54,20.73 1.31,42.24 17.28,54.23 4.34,3.24 9.12,5.92 14.36,8.05l69.7 28.2c17.08,6.91 29.53,19.94 36.94,38.64l243.5 614.31c5.5,13.86 15.3,23.23 28.32,27.04 13.02,3.81 25.62,1.03 36.4,-8.07 16.11,-13.57 32.47,-26.83 49.04,-39.71 65.5,-50.9 134.2,-96.3 205.42,-136.14 20.42,-11.44 29.33,-38.87 20.28,-62.49l-139.63 -364.36c-7.31,-19.07 -7.31,-38.57 0.03,-57.63 7.32,-19.07 19.91,-32.4 37.73,-39.61 5.65,-2.31 10.43,-4.96 14.73,-8.16 16.02,-11.95 22.94,-33.49 17.41,-54.24 -5.52,-20.76 -21.81,-34.42 -41,-34.42z"/>
    <path class="fil6" d="M14751.49 7184.71c17.29,6.99 29.87,20.28 37.21,39.28 7.33,19.02 7.39,38.46 0.16,57.51l-142.17 374.65 -106.95 281.86 -206.37 543.84c-5.84,15.38 -4.54,31.66 3.62,45.63 8.16,13.98 20.91,21.73 35.74,21.73l320.1 0c17.3,0 32.1,-10.87 39.13,-28.71l193.16 -490.58 109.4 -277.82 197.98 -502.81c7.4,-18.77 19.88,-31.86 37.01,-38.8l66.94 -27.09c5.23,-2.12 10.02,-4.81 14.35,-8.05 15.98,-11.98 22.85,-33.5 17.3,-54.23 -5.55,-20.73 -21.8,-34.36 -40.99,-34.36l-30.62 0 -128.91 0 -250.5 0 -54.33 0 -105.17 0c-19.2,0 -35.47,13.65 -41,34.4 -5.54,20.74 1.35,42.27 17.35,54.23 4.3,3.23 9.07,5.88 14.29,7.99l3.27 1.33z"/>
    <g>
     <path class="fil6" d="M14882.27 9111.49l0 478.23 -39.21 10.08c-158.02,41.58 -300.59,68.87 -427.7,81.72l-115.74 293.93c328.81,-6.16 660.18,-67.11 994.01,-183.35l0 -680.61 0 -292.66 0 -67.75 0 -56.86 -630.08 0 -410.76 0 -98.69 0 -283.35 0 -53.66 0 159.55 417.27 117.82 0 59.64 0 178.26 0 166.88 0 108.09 0 274.94 0z"/>
     <path class="fil6" d="M13407.65 9425.17c-200.9,-163.52 -301.04,-371.62 -301.04,-624.31 0,-117.29 23.77,-226.02 71.4,-326.09 53.43,-112.27 136.88,-213.66 250.47,-304.07 12.33,-9.85 24.81,-19.41 37.47,-28.69 207.14,-151.9 458.32,-228.08 753.06,-228.08 62.24,0 124.55,2.75 186.99,8.22l108.17 -285.05c-92.53,-10.54 -188.07,-15.83 -286.77,-15.83 -338.45,0 -633.15,66.49 -884.48,199.68 -77.52,41.09 -150.92,88.52 -220.19,142.31 -39.26,30.56 -75.89,62.15 -109.91,94.78 -219.96,211.02 -330.15,465.36 -330.15,763 0,325.75 142.04,599.35 425.4,821.91 117.2,91.83 250.81,164.68 400.71,218.52 16.45,5.91 33.41,0.67 44.91,-13.86 11.51,-14.53 14.22,-34.15 7.16,-51.94l-139.15 -351.04c-3.22,-8.12 -7.65,-14.25 -14.05,-19.46z"/>
     <path class="fil6" d="M15048.98 8072.4c27.33,10.3 54.53,21.49 81.43,34.11 77.47,36.36 -33.29,409.07 220.36,-188.24 5.49,-12.91 5.79,-26.4 0.9,-39.6 -4.91,-13.2 -13.63,-22.42 -25.63,-27.06 -22.07,-8.52 -52.19,-20.17 -90.35,-34.92 -0.57,-0.21 -1.05,-0.4 -1.62,-0.58 -25.32,-8.54 -50.14,-16.77 -74.45,-24.68l-110.64 280.97z"/>
    </g>
   </g>
   <path class="fil1" d="M3887.95 5057.66c-198.28,257.33 -552.38,187.05 -781.52,10.47 -227.81,-175.42 -386.47,-502.09 -188.57,-759.23 93.91,-122.09 232.57,-176.76 385.33,-163.05l34.29 3.05 62.47 250.29 -65.33 -3.43c-75.81,-4 -146.66,13.52 -194.47,75.62 -105.91,137.52 2.28,309.52 118.47,399.04 116.95,90.1 309.71,150.67 416,12.76 48.19,-62.47 46.67,-135.04 22.67,-207.61l-20.96 -63.05 260 -2.1 11.62 32c52.38,144.38 34.29,292.95 -60,415.24zm267.62 -748.38l298.47 -306.09 192.76 187.62 -471.99 484.18 -855.05 -833.51 173.34 -178.1 662.47 645.9zm865.71 -392.95c-252.38,177.72 -493.33,6.48 -644.95,-208.95l-384.38 -545.9 203.24 -143.24 380 539.62c64.76,92 169.52,216.38 288.57,132.57 118.85,-83.62 35.8,-224 -28.77,-315.81l-379.8 -539.23 201.14 -141.91 384.95 545.9c151.43,214.67 232.19,499.43 -20,676.95zm787.8 -1239.61c104,18.86 184.38,98.86 235.05,194.1 107.43,201.52 33.52,374.28 -162.29,478.66l-401.52 214.09 -561.71 -1054.09 380.95 -202.85c184.38,-98.48 365.33,-58.29 465.52,130.09 39.05,73.53 60,159.05 44,240zm752 360.76l-349.52 -1141.71 387.99 -119.04c318.1,-97.53 559.24,136.95 647.81,426.28 88.76,290.09 20.19,618.28 -298.28,715.8l-388 118.67zm1191.23 -568l456.76 -63.61 37.14 265.33 -703.42 97.71 -164.76 -1182.66 687.04 -96 37.14 265.33 -440.95 61.34 26.1 186.85 391.23 -54.47 36.38 261.9 -391.04 54.48 28.38 203.8zm1285.9 -105.14c-0.96,0 -1.91,0 -2.86,0l-136 -7.81 -17.91 319.43 -248.18 -14.1 66.85 -1192.37 384.19 21.52c259.43,14.67 385.33,213.72 371.43,460.38 -8,140.57 -59.81,278.67 -178.86,354.48l181.71 402.28 -271.99 -15.24 -148.38 -328.57zm795.23 146.48l453.52 85.33 -49.52 263.24 -697.9 -131.24 220.76 -1173.9 681.9 128.19 -49.53 263.24 -437.33 -82.29 -35.04 185.34 388.18 72.95 -48.95 260 -388 -72.96 -38.09 202.1zm1150.28 309.33l131.81 -340.57 224.38 87.05 -182.48 470.66 -16.95 8.38c-120.57,58.86 -262.86,64.38 -387.81,16 -304.57,-118.09 -339.81,-475.81 -234.28,-747.99 106.28,-274.1 373.52,-512.38 679.42,-393.91 144.38,56 238.86,168.76 271.24,320.19l7.24 33.53 -218.67 133.9 -17.14 -61.9c-21.15,-76.77 -59.43,-136.77 -135.81,-166.29 -165.52,-64.19 -298.28,82.67 -353.33,224.76 -54.1,139.43 -54.29,340.57 108.76,403.81 40.76,15.81 81.71,20.57 123.62,12.38zm862.66 459.81l-297.14 -161.15 -192 184.76 -227.81 -123.61 921.14 -859.05 192.57 104.38 -216 1241.33 -229.9 -124.57 49.14 -262.09zm862.28 -229.15l-215.81 -163.99 163.24 -214.67 629.14 478.66 -163.05 214.29 -215.62 -164 -559.42 736.38 -198.1 -150.29 559.62 -736.38zm449.71 1272.19l-236.38 -242.1 -237.9 119.81 -181.33 -185.33 1134.27 -548.19 152.96 156.76 -573.52 1121.71 -182.48 -186.86 124.38 -235.8zm253.9 707.04c-74.28,-102.86 -119.8,-252 -89.9,-378.09l6.29 -26.67 263.61 -82.86 -16.19 80.19c-16.76,83.05 2.1,182.48 52,251.43 38.86,53.71 91.62,97.71 153.91,52.57 141.52,-102.09 -239.81,-426.28 112,-680.18 184.18,-132.77 391.99,-99.62 526.28,86.09 63.24,87.62 100,202.48 89.52,310.47l-3.05 31.05 -252.76 87.05 2.86 -70.67c2.86,-69.52 -11.62,-145.71 -52.95,-203.04 -41.53,-57.53 -93.91,-91.62 -157.33,-45.91 -138.67,100 239.23,425.14 -108.77,676.38 -183.61,132.38 -392.18,96.76 -525.52,-87.81zm-8153.47 -2410.84l96.76 181.52 147.05 -78.28c64.57,-34.48 90.85,-76.77 54.66,-144.96 -36.76,-68.76 -85.9,-71.42 -151.61,-36.57l-146.86 78.29zm216.76 406.85l103.43 193.91 173.52 -92.57c72.19,-38.48 102.29,-80.58 61.52,-157.34 -40.76,-76.38 -92.57,-75.23 -164.57,-36.76l-173.9 92.76zm1244.37 -318.66l143.62 -44c174.48,-53.34 191.62,-233.91 144.76,-387.24 -46.66,-152.57 -162.28,-293.33 -336.57,-239.81l-143.8 44 191.99 627.05zm2213.32 -955.04l-19.04 340.18 128.95 7.05c110.09,6.29 157.33,-57.14 163.04,-162.09 5.91,-105.53 -34.09,-171.62 -143.99,-177.72l-128.96 -7.42zm2810.65 1179.8l153.34 83.24 52.95 -281.53 -206.29 198.29zm1419.23 1028.18l122.1 124.95 133.9 -253.33 -256 128.38z"/>
   <path class="fil1" d="M3844.9 13411.13l725.33 -289.9 176.57 200 -1158.47 462.66 -152.19 -172.38 602.1 -1093.14 185.52 210.86 -378.86 681.9zm675.24 916l-288.38 -237.53 -226.09 136.95 -210.48 -173.71 1081.9 -630.66 176.57 146.09 -411.62 1182.85 -212.38 -175.23 90.48 -248.76zm476 668.18c-112.77,-68 -224.77,-190.28 -253.72,-321.71l-6.47 -29.33 210.66 -169.72 18.86 72.57c22.86,88.38 88.57,175.81 166.66,223.24 53.91,32.57 132.96,65.14 173.72,-2.29 84.19,-139.8 -419.24,-323.04 -201.72,-682.85 122.67,-203.24 341.15,-226.85 537.91,-107.81 96.57,58.29 183.61,152 222.85,258.48l11.81 31.62 -200.38 170.85 -25.9 -60.38c-30.1,-69.71 -79.81,-136.38 -145.34,-176.19 -58.66,-35.43 -131.8,-59.62 -173.9,9.91 -82.28,136.57 418.09,321.71 203.05,677.71 -122.29,202.85 -342.48,224.19 -538.09,105.9zm918.66 489.14c-299.24,-139.62 -347.43,-487.23 -217.15,-766.28 129.15,-276.76 428.38,-465.33 728,-325.52 144.19,67.24 240.19,189.71 268,346.66l6.67 37.34 -236.57 104.57 -12.58 -57.91c-17.52,-80.95 -57.71,-145.14 -133.9,-180.76 -161.9,-75.62 -313.9,40.76 -381.9,186.29 -68.57,147.23 -60.57,336.38 102.66,412.57 76.19,35.61 151.62,24.38 224.57,-14.86l52.96 -28.57 70.85 250.85 -32.57 18.86c-138.47,79.62 -294.85,84.19 -439.04,16.76zm961.7 334.86c-321.14,-84.96 -431.99,-418.86 -353.33,-716.76 78.1,-295.43 341.91,-533.33 661.33,-448.95 321.71,85.14 432.19,418.28 353.33,716.95 -78.47,296 -341.14,533.33 -661.33,448.76zm944.95 183.04l56 -1173.51 434.66 20.76c337.34,16.19 517.33,291.04 502.29,611.99 -15.24,321.72 -220.95,577.33 -558.28,561.33l-434.67 -20.57zm1703.04 -271.61l-372 36.19 -62.48 256.95 -271.61 26.47 317.14 -1211.04 228 -22.47 547.23 1127.04 -274.09 26.47 -112.19 -239.61zm1223.23 -335.05l-103.81 -342.28 241.52 -72.96 144.19 476.76 -9.71 17.72c-67.24,123.43 -186.1,214.28 -319.81,254.85 -317.9,96.38 -586.85,-128.38 -676.57,-424.76 -90.66,-299.42 10.48,-633.33 329.72,-729.9 152.76,-46.28 306.28,-24.19 433.9,73.15l29.9 22.85 -101.14 236.38 -48.57 -32.57c-71.81,-48.38 -144.19,-66.67 -227.81,-41.33 -175.81,53.33 -213.52,235.23 -165.14,395.23 47.43,156.57 182.47,289.91 355.23,237.72 46.1,-13.91 85.72,-36.57 118.1,-70.86zm952.56 -371.43l-331.99 171.05 36.76 261.71 -243.05 125.14 -152.38 -1242.84 203.81 -104.96 924.57 845.14 -244.95 126.1 -192.77 -181.34zm855.05 -925.71l87.04 473.91 -107.23 79.42 -424 -214.47 326.85 440.19 -203.04 151.04 -700.57 -942.66 171.24 -127.42 647.04 331.99 -136.19 -711.61 171.43 -127.43 701.52 941.9 -201.9 150.48 -332.19 -445.34zm941.13 -479.61l-255.61 272.38 122.47 234.28 -186.66 199.24 -560.38 -1119.8 156.76 -167.24 1154.28 486.28 -188.38 200.95 -242.48 -106.09zm-9034.23 331.62l150.67 124.38 100.95 -276.38 -251.62 152zm2483.8 1605.13c170.66,45.14 298.09,-100.38 338.09,-252.19 40.38,-152.38 1.52,-341.52 -169.14,-386.47 -170.67,-45.15 -298.09,100.95 -338.09,252.57 -40.38,152.38 -1.34,341.14 169.14,386.09zm1149.13 193.14l165.91 7.81c187.23,8.95 283.04,-133.14 291.23,-307.43 8.38,-173.9 -73.71,-325.14 -260.57,-334.09l-166.09 -8 -30.48 641.71zm1121.71 -243.05l194.67 -19.04 -124.76 -266.48 -69.91 285.52zm2114.65 -576.94l173.72 -89.53 -214.1 -201.52 40.38 291.05zm1785.33 -1276.19l133.9 -142.85 -269.52 -117.91 135.62 260.76z"/>
  </g>
  <circle class="fil0" cx="8669.83" cy="8669.83" r="8063.48"/>
  <path class="fil7" d="M16045.41 10835.83c-898.81,3210.43 -3845.97,5565.09 -7343.36,5565.09 -3497.39,0 -6444.55,-2354.66 -7343.35,-5565.09l2085.92 0c823.1,2098.9 2866.65,3585.13 5257.43,3585.13 2390.78,0 4434.34,-1486.23 5257.43,-3585.13l2085.93 0z"/>
  <path class="fil7" d="M8669.83 1044.61c3497.38,0 6444.55,2354.66 7343.35,5565.09l-2085.92 0c-823.1,-2098.9 -2866.65,-3585.13 -5257.43,-3585.13 -2390.79,0 -4434.34,1486.23 -5257.44,3585.13l-2085.92 0c898.81,-3210.43 3845.97,-5565.09 7343.36,-5565.09z"/>
  <path class="fil3" d="M6864.18 11587.16l421.3 -153.84c-17.48,784.8 726.53,557.6 735.32,-46.08 789.59,-379.48 1393.41,-563.18 1811.53,-551.12 -0.79,121.91 -7.04,241.11 -17.79,358.36l-4.31 -0.24c-646.73,-35.44 -1278.32,354.39 -1822.67,654.32 -0.02,0.01 1267.35,-561.72 1807.05,-537.39l7.35 2.96c-14.77,124.66 -34.38,247.42 -57.71,369.24 -222.79,-94.03 -909.9,130.63 -1146.5,215.22 -379.26,135.58 -828.25,329.24 -1346.17,577.17 -183.74,-216.35 -317.66,-506.01 -387.4,-888.6zm2856.33 213.95c-25.25,119.53 -53.74,238.5 -84.42,357.84 -236.74,-102.27 -908.52,122.53 -1156.2,211.08 -270.51,96.7 -576.52,222.95 -917.67,377.36 -81.15,-52.24 -156.99,-112.4 -226.88,-181.34 499.53,-238.2 933.79,-424.89 1302,-556.52 205.14,-73.34 879.36,-299.47 1083.17,-208.42zm-114.6 472.91c-48.22,180.51 -100.58,362.59 -153.4,549.47 -92.83,-66.92 -179.52,-161.05 -262.66,-278.39l-141.92 -200.31 -156.93 188.77c-272.82,328.12 -817.72,485.41 -1203.21,286.36 306.91,-137.13 584.22,-250.49 831.69,-338.95 208.24,-74.46 879.18,-300.46 1086.43,-206.95zm689.79 -1230.63c220.61,182.3 299.93,453.34 266.13,787.27 -96.38,-145.83 -209.84,-282.6 -343.11,-396.26 36.96,-143.26 62.61,-273.61 76.98,-391.01zm84.63 1167.3c-87.3,-118.92 -186.94,-229.06 -300.99,-322.89 40.19,-114.98 75.11,-223.92 104.78,-326.83 328.71,303.54 413.07,347.79 196.21,649.72zm-73.82 98.66c-56.93,73.04 -116.42,142.54 -178.46,208.48 -65.4,-71.4 -136.53,-137.42 -213.78,-195.85 44.68,-109.65 85.56,-214.96 122.66,-315.92 6.86,6 13.69,12.09 20.5,18.27 88.35,80.26 171.37,175.26 249.08,285.02zm-260.95 292.58c-121.88,119.23 -252.94,225.73 -393.2,319.46 78.87,-170.39 150.63,-332.63 215.3,-486.75 63.87,50.66 123.07,107 177.9,167.29zm-2689.17 -1194.51l210.74 -76.96c18.1,207.78 71.19,331.27 159.25,370.45 -235.41,235.41 -366.35,-55.5 -369.99,-293.49z"/>
  <path class="fil7" d="M11790.21 7804.59c108.25,1644.63 -213.03,2819.99 -963.89,3526.11 -39.43,-157.87 -473.97,-604.67 -473.97,-604.75 0,0 403.14,-372.3 914.65,-889.96 0,0 -40.45,-83.89 -121.34,-251.67 0,0 -439.44,340.69 -1318.3,1022.06 2.36,47.02 3.83,93.58 4.54,139.74 -1249.17,-58.34 -3260.94,713.36 -3756.59,916.05 1141.8,-1320.34 1366.87,-2599.16 675.2,-3836.45 213.32,1054.59 115.1,2073.54 -294.64,3056.87 -322.36,88.45 -631.31,213.25 -926.89,374.44 712.98,-1163.17 827.58,-2558.6 356.09,-3989.84l1749.45 -6.14c6.43,119.81 -50.71,360.5 -93.94,543.54l4249.63 0z"/>
  <path class="fil7" d="M7564.3 6220.87c-87.67,297.33 -330.14,605.27 -727.44,923.81 -37.64,-353.91 -133.82,-684.36 -276.23,-923.81l1003.67 0z"/>
  <path class="fil7" d="M7748.69 7804.69c-138.67,0 -208.19,0 -208.19,0 447.43,-461.33 520.76,-1088.95 220.19,-1883.04 770.28,-275.23 1448.18,-412.95 2033.51,-412.76 -411.04,-811.42 -2178.27,45.53 -2691.6,457.53 240.38,-465.53 216.57,-862.67 -73.72,-1190.85 903.43,-477.91 3052.94,-823.05 3035.8,743.8 208.76,16.57 404.56,52.38 587.23,107.81 907.99,313.71 717.71,1510.28 304,2177.51 -72.76,0 -145.33,0 -217.91,0 -106.66,-317.71 -348.18,-486.47 -724.37,-506.47 -856.38,-21.34 -1611.42,147.42 -2264.94,506.47z"/>
  <path class="fil3" d="M9944.79 10863.78c1.73,-73.81 1.28,-147.12 -1.38,-219.88 773.45,-597.42 1160.17,-896.14 1160.17,-896.14 20.53,39.89 30.81,59.84 30.81,59.84 -698.73,606.7 -1048.09,910.04 -1048.09,910.04 114.59,4.08 171.88,6.12 171.88,6.12 -10.62,85.22 -24.02,172.89 -40.17,262.96 -98.58,550.13 -300,1191 -604.28,1922.6 -58.03,-20.46 -113.53,-50.75 -167.01,-90.06 317.75,-688.7 483.78,-1340.52 498.07,-1955.48z"/>
  <path class="fil2" d="M8611.32 3187.07l21.44 0c33.35,0 60.62,27.27 60.62,60.62l0 505.62 0 438.13 0 97.43 -142.68 0 0 -97.43 0 -438.13 0 -505.62c0,-33.35 27.27,-60.62 60.62,-60.62z"/>
  <path class="fil7" d="M7897.2 4029.6c122.97,-77.81 311.17,-108.02 564.59,-90.59 -121.49,-100.44 -151.15,-241.62 -89,-423.55 40.94,-84.93 61.41,-127.4 61.41,-127.4 -437.44,115.23 -660.44,229.85 -668.97,343.82 -5.18,61.39 -0.06,98.22 15.35,110.49 -252.24,65.06 -491.63,246.14 -718.19,543.25 518.39,-201.85 901.02,-285.74 1147.87,-251.66 -67.47,-70.71 -171.83,-105.5 -313.06,-104.36z"/>
  <path class="fil2" d="M10128.69 13205.07c159.87,199.97 378.81,250.11 656.81,150.39 -303.97,-23.68 -477.91,-142.88 -521.83,-357.6 -475.28,255.22 -884.5,140.63 -1227.68,-343.76 -328.8,395.48 -797.36,520.3 -1405.67,374.43 398.76,422.79 1047.48,390.62 1350.45,-125.84 203.72,521.17 722.11,604.58 1147.92,302.38z"/>
  <path class="fil2" d="M8439.23 13413.91c-388.2,183.28 -704.33,163.85 -948.4,-58.3 -99.27,173.51 -256.83,253.31 -472.67,239.39 95.81,114.34 261.06,105.14 495.73,-27.63 294.66,278.61 728.86,181.8 925.34,-153.46z"/>
  <path class="fil4" d="M8810.72 13440.03c164.05,123.22 390.14,144.7 678.29,64.45 -86.93,266.37 -692.11,256.31 -678.29,-64.45z"/>
  <path class="fil2" d="M9935.58 13502.94c74.69,-35.97 140.17,-71.79 196.43,-107.42 78.12,124.14 265.35,163 561.67,116.62 -179.8,224.01 -585,196.35 -758.1,-9.2z"/>
  <path class="fil8" d="M8692 8217.98c205.86,177.27 353.58,369.03 449.12,645.37l65.39 189.13 -185.81 -74.36c-248.7,-99.53 -467.26,-249.97 -646.58,-444.78l0 1376.77c179.32,-194.81 397.89,-345.24 646.58,-444.78l185.81 -74.37 -65.39 189.13c-95.54,276.34 -243.26,468.11 -449.12,645.38l1370.87 0c-205.88,-177.15 -351.52,-368.64 -448.16,-645.07l-66.23 -189.46 186.43 74.35c250.25,99.78 467.12,250.46 646.7,445.8l0 -1378.74c-179.58,195.34 -396.45,346.02 -646.7,445.81l-186.43 74.34 66.23 -189.46c96.64,-276.43 242.28,-467.92 448.16,-645.06l-1370.87 0z"/>
  <g id="_1985270038320">
   <path class="fil7" d="M4149.43 9397.28c-75.78,-136.17 -139.05,-240.08 -189.81,-311.55 -66.9,-94.9 -135.09,-173.52 -204.54,-236.3 -11.57,-10.46 -16.95,-24.66 -15.23,-40.27 1.7,-15.62 10.03,-28.27 23.58,-35.91 119.81,-67.5 213.56,-160.87 282.1,-280.15 53.38,-92.31 89.08,-196.4 106.89,-312.02l-15.4 -3.81c-127.46,-31.07 -257.05,-52.97 -387.72,-64.09 -9.87,57.88 -27.31,111.71 -52.13,161.13 -41.63,82.24 -98.71,142.96 -173.21,183.65 -73.83,40.76 -210.11,60.73 -409.49,60.73l-102.58 0c-25.59,0 -46.46,-21.13 -46.46,-47.04l0 -298.21 0 -92.48 0 -298.56 0 -120.22 0 -126.74c0,-25.91 20.87,-47.04 46.46,-47.04l71.71 0c191.99,0 330.29,16.81 412.82,51.17 38.73,15.95 73.37,37.28 104.03,63.89 33.94,0.86 67.88,2.32 101.77,4.36 138.81,8.33 277.11,26.16 413.97,51.02 -40.46,-125.18 -105.65,-232.8 -195.48,-322.95 -163.11,-163.73 -383.33,-245.18 -661.92,-245.18l-522.21 0c-104.53,-1.31 -209.09,-2.63 -313.62,-3.95 -19.66,-0.25 -36.58,11.26 -43.8,29.79 -7.22,18.52 -2.61,38.6 11.94,52.02 50.59,46.67 127.03,96.2 169.82,151.8 6.62,8.61 9.81,17.99 9.81,28.91l0 576.05 0 388.49 0 10.76 0 190.11 0 438.75c21.49,37.84 48.93,73.3 82.07,106.78 39.17,39.6 83.75,73.88 130.41,103.9 57.56,37.04 118.73,67.67 182.22,92.6l0 -274.11c0,-25.91 20.87,-47.04 46.46,-47.04l55.59 0c128.91,0 220.2,17.55 274.58,52.69 54.36,35.15 115.45,91.87 182.58,171.72 64.97,75.78 136.14,177.26 213.43,303.69 3.08,5.03 6.17,10.09 9.25,15.2 0.59,0.97 1.07,1.83 1.6,2.85l119.55 232.18 11.28 21.9 120.79 237.42c0.49,0.99 0.95,1.81 1.51,2.75l75.48 126.73c0.19,0.31 0.36,0.58 0.55,0.9 11.62,18.57 18.79,30.89 22.78,38.77 0.29,0.56 0.53,1.04 0.85,1.6l106.36 190.86c8.46,15.18 23.24,23.92 40.46,23.92l440.79 0 51.28 0c19.48,0 36.1,-11.46 43.24,-29.81 7.13,-18.37 2.68,-38.21 -11.57,-51.65 -199.95,-188.7 -215.46,-97.94 -458.19,-571.83 -10.25,-19.81 -20.34,-39.23 -30.29,-58.25 -48.46,-92.78 -93.25,-176.09 -134.36,-249.93z"/>
   <path class="fil7" d="M2570.73 9143.46l-1.83 -1.84 -1.81 -1.87 -1.73 -1.76 -0.08 -0.08 -1.8 -1.88 -1.79 -1.87 -1.6 -1.68 -0.19 -0.2 -1.78 -1.89 -1.77 -1.89 -1.46 -1.55 -0.31 -0.35 -1.76 -1.9 -1.76 -1.92 -1.27 -1.4 -0.47 -0.52 -1.73 -1.92 -1.73 -1.93 -1.09 -1.23 -0.63 -0.71 -1.72 -1.95 -1.7 -1.94 -0.89 -1.03 -0.81 -0.93 -3.38 -3.93 -0.67 -0.81 -1 -1.18 -3.34 -3.97 -0.44 -0.53 -1.2 -1.46 -1.65 -2.01 -1.63 -2 -0.19 -0.25 -3.06 -3.79 -1.56 -1.95 -0.05 -0.08 -1.61 -2.03 -1.59 -2.06 -1.26 -1.61 -0.33 -0.43 -1.58 -2.05 -1.56 -2.06 -0.96 -1.26 -0.61 -0.81 -1.55 -2.08 -1.55 -2.09 -0.64 -0.87 -0.89 -1.21 -1.53 -2.1 -6.02 -8.45 -2.95 -4.26 -1.14 -1.67 -0.33 -0.47 -2.89 -4.31 -0.79 -1.18 -3.49 -5.32 -0.43 -0.66 -3.77 -5.91 -0.07 -0.11 -3.76 -6.06 -0.29 -0.46 -1.34 -2.22 -2.04 -3.39 -0.64 -1.07 -1.32 -2.25 -1.31 -2.25 -0.32 -0.54 -0.99 -1.71 -1.29 -2.26 -1.22 -2.17 -14.23 -25.05 0 -1.98c-37.79,-76.76 -56.66,-160.22 -56.66,-250.45 0,-88.61 18.9,-171.05 56.66,-247.3l0 -495.03c-11.69,7.16 -23.28,14.47 -34.77,21.9 -300.34,194.7 -450.15,434.85 -450.15,720.43 0,179.83 65.71,346.79 196.48,501.31 105.04,123.51 239.92,225.61 404.61,306.57 41.35,20.34 84.58,39.33 129.68,57 81.81,32.04 170.16,58.24 265.02,78.62 165.71,35.59 351.23,53.38 556.19,53.38 75.23,0 148.79,-2.01 220.65,-6.05l-95.26 -185c-2.56,-4.22 -5.14,-8.45 -7.72,-12.66 -11.23,-18.39 -22.71,-36.85 -34.38,-55.27 -19.5,0.46 -39,0.68 -58.54,0.68 -170.34,0 -325.32,-17.95 -464.78,-53.75l0 11.27 -153.17 -60.17 -4.06 -1.58 -0.95 -0.38 -3.1 -1.22 -0.2 -0.08 -3.31 -1.31 -0.52 -0.21 -2.77 -1.12 -1.27 -0.5 -2.03 -0.84 -1.97 -0.79 -1.32 -0.54 -2.69 -1.11 -0.59 -0.24 -3.29 -1.36 -0.13 -0.05 -3.15 -1.32 -0.83 -0.35 -2.44 -1.03 -1.54 -0.65 -1.74 -0.74 -2.22 -0.94 -1.04 -0.46 -2.91 -1.25 -0.36 -0.16 -3.25 -1.41 -0.33 -0.14 -2.92 -1.29 -1.02 -0.45 -2.24 -1 -1.67 -0.73 -1.58 -0.71 -2.33 -1.04 -0.91 -0.42 -3 -1.35 -0.23 -0.11 -3.24 -1.47 -0.41 -0.2 -2.82 -1.29 -1.07 -0.48 -2.15 -1.02 -1.72 -0.79 -1.49 -0.71 -2.36 -1.1 -0.87 -0.41 -2.97 -1.42 -0.24 -0.11 -3.19 -1.53 -0.42 -0.19 -2.8 -1.37 -1.02 -0.48 -2.17 -1.06 -1.65 -0.8 -1.54 -0.77 -2.26 -1.09 -0.93 -0.48 -2.87 -1.41 -0.32 -0.17 -3.17 -1.6 -0.28 -0.14 -2.89 -1.46 -0.89 -0.44 -2.28 -1.17 -3.17 -1.62 -2.07 -1.06 -1.08 -0.57 -6.3 -3.29 -0.1 -0.04 -3.04 -1.63 -0.67 -0.34 -2.47 -1.32 -1.24 -0.66 -1.89 -1.03 -1.81 -0.97 -1.32 -0.72 -2.36 -1.28 -0.77 -0.43 -9.33 -5.15 -0.91 -0.5 -2.19 -1.25 -1.46 -0.81 -1.64 -0.94 -1.99 -1.13 -1.1 -0.62 -2.52 -1.45 -0.57 -0.33 -3.06 -1.77 -0.01 -0.01 -3.07 -1.79 -0.51 -0.29 -2.57 -1.52 -1.03 -0.6 -2.03 -1.2 -1.55 -0.92 -1.51 -0.9 -2.06 -1.24 -0.98 -0.6 -2.58 -1.55 -0.47 -0.28 -3.05 -1.86 -0.04 -0.02 -2.99 -1.84 -0.55 -0.34 -2.48 -1.53 -1.04 -0.65 -1.98 -1.24 -1.54 -0.95 -1.48 -0.93 -2.03 -1.28 -0.97 -0.63 -2.53 -1.6 -0.48 -0.31 -3 -1.92 -2.53 -1.63 -0.18 -0.12 -2.34 -1.52 -0.35 -0.23 -2.16 -1.41 -0.53 -0.34 -1.99 -1.31 -0.68 -0.46 -1.81 -1.19 -0.85 -0.57 -1.66 -1.1 -0.99 -0.67 -1.51 -1.01 -1.13 -0.75 -1.35 -0.93 -1.27 -0.85 -1.23 -0.83 -1.39 -0.95 -1.1 -0.75 -1.49 -1.02 -0.98 -0.67 -1.61 -1.13 -2.58 -1.79 -0.76 -0.51 -1.81 -1.28 -0.64 -0.45 -1.93 -1.36 -0.53 -0.37 -2 -1.42 -0.46 -0.32 -2.08 -1.5 -0.36 -0.25 -2.17 -1.55 -0.27 -0.2 -2.24 -1.62 -0.2 -0.14 -2.3 -1.68 -4.96 -3.64 -0.03 -0.02 -2.42 -1.79 -0.02 -0.03 -2.38 -1.76 -0.08 -0.07 -2.32 -1.75 -0.12 -0.1 -2.28 -1.71 -0.15 -0.12 -2.24 -1.71 -0.18 -0.14 -2.2 -1.69 -0.21 -0.17 -2.18 -1.67 -0.22 -0.18 -2.16 -1.67 -0.23 -0.19 -2.13 -1.67 -0.24 -0.19 -2.12 -1.67 -0.24 -0.21 -2.12 -1.66 -0.23 -0.2 -4.68 -3.76 -2.11 -1.71 -0.21 -0.17 -2.12 -1.74 -0.18 -0.15 -6.77 -5.61 -0.08 -0.08 -4.51 -3.8 0 -0.01 -6.84 -5.88 -2.04 -1.79 -0.24 -0.19 -1.96 -1.74 -0.29 -0.25 -1.89 -1.68 -0.36 -0.32 -1.81 -1.63 -0.44 -0.37 -1.71 -1.56 -0.52 -0.45 -1.64 -1.49 -0.59 -0.54 -1.53 -1.42 -0.69 -0.61 -1.44 -1.33 -0.78 -0.71 -1.33 -1.25 -0.87 -0.81 -1.23 -1.15 -0.98 -0.91 -1.12 -1.05 -1.06 -1.02 -1.01 -0.95 -1.17 -1.12 -0.91 -0.86 -1.27 -1.22 -0.78 -0.75 -1.39 -1.35 -0.66 -0.64 -1.49 -1.45 -0.54 -0.53 -1.62 -1.59 -0.4 -0.4 -1.74 -1.72 -0.26 -0.27 -1.87 -1.86 -0.13 -0.14 -1.99 -2z"/>
   <path class="fil7" d="M3758.92 7995.97c133.78,11.38 268.89,33.7 405.29,66.96 74.15,18.07 148.69,39.4 223.61,63.93 1.12,0.37 2.26,0.69 3.4,0.97 31.49,31.83 50.43,60.64 56.85,86.44 22.9,27.84 46.5,24.17 70.8,-11.02 73.82,-176.44 110.74,-264.65 110.74,-264.65 6.36,-65.59 -419.83,-142.03 -482.21,-154.23 -157.63,-30.8 -308.35,-50.52 -452.05,-59.15 -55.92,-3.36 -110.78,-5.04 -164.57,-5.04 -158.84,0 -308.57,12.67 -449.19,37.96l0 286.05c141.46,-38.06 297.97,-57.1 469.68,-57.1 68.87,0 138.08,2.96 207.65,8.88z"/>
   <path class="fil6" d="M2965.43 10213.65l0 -417.67c-8.06,-1.63 -16.08,-3.31 -24.11,-5.03 -96.17,-20.66 -191.1,-48.05 -282.82,-83.98 -29.55,-11.57 -58.83,-23.89 -87.77,-36.96l0 543.64c0,14.63 -5.92,27.23 -17.13,36.47 -18.6,15.32 -43.52,30.64 -74.77,45.89 -2.41,1.18 -4.39,2.35 -6.58,3.92 -28.9,20.62 -33.47,40.23 -13.71,58.82l158.65 0 37.39 0 227 0 37.39 0 158.65 0c19.75,-18.59 15.19,-38.2 -13.71,-58.82 -2.2,-1.57 -4.17,-2.74 -6.59,-3.92 -31.24,-15.25 -56.16,-30.57 -74.77,-45.89 -11.21,-9.24 -17.12,-21.84 -17.12,-36.47z"/>
   <path class="fil7" d="M4367.07 9333.06c-33.89,11.63 -67.87,22.52 -101.94,32.66 41.4,74.97 81.69,150.59 121.36,226.51l12.95 24.78c49.15,-14.09 97.2,-29.51 144.13,-46.25 46.79,-12.87 69.09,-30.68 66.88,-53.44 0,0 -36.91,-88.21 -110.73,-264.65 -24.3,-35.19 -47.9,-38.86 -70.81,-11.02 -6.75,27.13 -27.36,57.6 -61.84,91.41z"/>
  </g>
  <g id="_1985270032912">
   <path class="fil7" d="M13966.41 9337.66c-26.23,0.04 -48.66,-16.56 -59.07,-43.72l-14.35 -37.44 -0.82 0 -270.43 -707.29 0.24 0 -104.21 -271.95c-5.12,3.94 -10.18,7.92 -15.24,11.95 -84.37,67.17 -162.07,150.63 -211.36,254.19 -17.73,37.27 -31.07,75.66 -40.29,115.22l268.9 678.4 0.01 0.01 305.69 771.2 -0.02 0 82.3 207.61c10.58,26.72 32.77,42.94 58.71,42.9 25.92,-0.05 48.06,-16.32 58.6,-43.05l75.39 -191.47 58.85 -149.45 112.14 -284.8 57.2 -145.28 113.48 -288.19 -402.7 0 -14.11 37.2c-10.32,27.2 -32.7,43.9 -58.91,43.96z"/>
   <path class="fil7" d="M13164.86 7086.76l-103.27 0 -56.24 0 -250.5 0 -127.01 0 -32.51 0c-19.18,0 -35.44,13.63 -40.98,34.36 -5.54,20.73 1.31,42.24 17.28,54.23 4.34,3.24 9.12,5.92 14.36,8.05l69.7 28.2c17.08,6.91 29.53,19.94 36.94,38.64l243.5 614.31c5.5,13.86 15.3,23.23 28.32,27.04 13.02,3.81 25.62,1.03 36.4,-8.07 16.11,-13.57 32.47,-26.83 49.04,-39.71 65.5,-50.9 134.2,-96.3 205.42,-136.14 20.42,-11.44 29.33,-38.87 20.28,-62.49l-139.63 -364.36c-7.31,-19.07 -7.31,-38.57 0.03,-57.63 7.32,-19.07 19.91,-32.4 37.73,-39.61 5.65,-2.31 10.43,-4.96 14.73,-8.16 16.02,-11.95 22.94,-33.49 17.41,-54.24 -5.52,-20.76 -21.81,-34.42 -41,-34.42z"/>
   <path class="fil7" d="M14751.49 7184.71c17.29,6.99 29.87,20.28 37.21,39.28 7.33,19.02 7.39,38.46 0.16,57.51l-142.17 374.65 -106.95 281.86 -206.37 543.84c-5.84,15.38 -4.54,31.66 3.62,45.63 8.16,13.98 20.91,21.73 35.74,21.73l320.1 0c17.3,0 32.1,-10.87 39.13,-28.71l193.16 -490.58 109.4 -277.82 197.98 -502.81c7.4,-18.77 19.88,-31.86 37.01,-38.8l66.94 -27.09c5.23,-2.12 10.02,-4.81 14.35,-8.05 15.98,-11.98 22.85,-33.5 17.3,-54.23 -5.55,-20.73 -21.8,-34.36 -40.99,-34.36l-30.62 0 -128.91 0 -250.5 0 -54.33 0 -105.17 0c-19.2,0 -35.47,13.65 -41,34.4 -5.54,20.74 1.35,42.27 17.35,54.23 4.3,3.23 9.07,5.88 14.29,7.99l3.27 1.33z"/>
   <g>
    <path class="fil7" d="M14882.27 9111.49l0 478.23 -39.21 10.08c-158.02,41.58 -300.59,68.87 -427.7,81.72l-115.74 293.93c328.81,-6.16 660.18,-67.11 994.01,-183.35l0 -680.61 0 -292.66 0 -67.75 0 -56.86 -630.08 0 -410.76 0 -98.69 0 -283.35 0 -53.66 0 159.55 417.27 117.82 0 59.64 0 178.26 0 166.88 0 108.09 0 274.94 0z"/>
    <path class="fil7" d="M13407.65 9425.17c-200.9,-163.52 -301.04,-371.62 -301.04,-624.31 0,-117.29 23.77,-226.02 71.4,-326.09 53.43,-112.27 136.88,-213.66 250.47,-304.07 12.33,-9.85 24.81,-19.41 37.47,-28.69 207.14,-151.9 458.32,-228.08 753.06,-228.08 62.24,0 124.55,2.75 186.99,8.22l108.17 -285.05c-92.53,-10.54 -188.07,-15.83 -286.77,-15.83 -338.45,0 -633.15,66.49 -884.48,199.68 -77.52,41.09 -150.92,88.52 -220.19,142.31 -39.26,30.56 -75.89,62.15 -109.91,94.78 -219.96,211.02 -330.15,465.36 -330.15,763 0,325.75 142.04,599.35 425.4,821.91 117.2,91.83 250.81,164.68 400.71,218.52 16.45,5.91 33.41,0.67 44.91,-13.86 11.51,-14.53 14.22,-34.15 7.16,-51.94l-139.15 -351.04c-3.22,-8.12 -7.65,-14.25 -14.05,-19.46z"/>
    <path class="fil7" d="M15048.98 8072.4c27.33,10.3 54.53,21.49 81.43,34.11 77.47,36.36 -33.29,409.07 220.36,-188.24 5.49,-12.91 5.79,-26.4 0.9,-39.6 -4.91,-13.2 -13.63,-22.42 -25.63,-27.06 -22.07,-8.52 -52.19,-20.17 -90.35,-34.92 -0.57,-0.21 -1.05,-0.4 -1.62,-0.58 -25.32,-8.54 -50.14,-16.77 -74.45,-24.68l-110.64 280.97z"/>
   </g>
  </g>
  <path class="fil0" d="M3887.95 5057.66c-198.28,257.33 -552.38,187.05 -781.52,10.47 -227.81,-175.42 -386.47,-502.09 -188.57,-759.23 93.91,-122.09 232.57,-176.76 385.33,-163.05l34.29 3.05 62.47 250.29 -65.33 -3.43c-75.81,-4 -146.66,13.52 -194.47,75.62 -105.91,137.52 2.28,309.52 118.47,399.04 116.95,90.1 309.71,150.67 416,12.76 48.19,-62.47 46.67,-135.04 22.67,-207.61l-20.96 -63.05 260 -2.1 11.62 32c52.38,144.38 34.29,292.95 -60,415.24zm267.62 -748.38l298.47 -306.09 192.76 187.62 -471.99 484.18 -855.05 -833.51 173.34 -178.1 662.47 645.9zm865.71 -392.95c-252.38,177.72 -493.33,6.48 -644.95,-208.95l-384.38 -545.9 203.24 -143.24 380 539.62c64.76,92 169.52,216.38 288.57,132.57 118.85,-83.62 35.8,-224 -28.77,-315.81l-379.8 -539.23 201.14 -141.91 384.95 545.9c151.43,214.67 232.19,499.43 -20,676.95zm787.8 -1239.61c104,18.86 184.38,98.86 235.05,194.1 107.43,201.52 33.52,374.28 -162.29,478.66l-401.52 214.09 -561.71 -1054.09 380.95 -202.85c184.38,-98.48 365.33,-58.29 465.52,130.09 39.05,73.53 60,159.05 44,240zm752 360.76l-349.52 -1141.71 387.99 -119.04c318.1,-97.53 559.24,136.95 647.81,426.28 88.76,290.09 20.19,618.28 -298.28,715.8l-388 118.67zm1191.23 -568l456.76 -63.61 37.14 265.33 -703.42 97.71 -164.76 -1182.66 687.04 -96 37.14 265.33 -440.95 61.34 26.1 186.85 391.23 -54.47 36.38 261.9 -391.04 54.48 28.38 203.8zm1285.9 -105.14c-0.96,0 -1.91,0 -2.86,0l-136 -7.81 -17.91 319.43 -248.18 -14.1 66.85 -1192.37 384.19 21.52c259.43,14.67 385.33,213.72 371.43,460.38 -8,140.57 -59.81,278.67 -178.86,354.48l181.71 402.28 -271.99 -15.24 -148.38 -328.57zm795.23 146.48l453.52 85.33 -49.52 263.24 -697.9 -131.24 220.76 -1173.9 681.9 128.19 -49.53 263.24 -437.33 -82.29 -35.04 185.34 388.18 72.95 -48.95 260 -388 -72.96 -38.09 202.1zm1150.28 309.33l131.81 -340.57 224.38 87.05 -182.48 470.66 -16.95 8.38c-120.57,58.86 -262.86,64.38 -387.81,16 -304.57,-118.09 -339.81,-475.81 -234.28,-747.99 106.28,-274.1 373.52,-512.38 679.42,-393.91 144.38,56 238.86,168.76 271.24,320.19l7.24 33.53 -218.67 133.9 -17.14 -61.9c-21.15,-76.77 -59.43,-136.77 -135.81,-166.29 -165.52,-64.19 -298.28,82.67 -353.33,224.76 -54.1,139.43 -54.29,340.57 108.76,403.81 40.76,15.81 81.71,20.57 123.62,12.38zm862.66 459.81l-297.14 -161.15 -192 184.76 -227.81 -123.61 921.14 -859.05 192.57 104.38 -216 1241.33 -229.9 -124.57 49.14 -262.09zm862.28 -229.15l-215.81 -163.99 163.24 -214.67 629.14 478.66 -163.05 214.29 -215.62 -164 -559.42 736.38 -198.1 -150.29 559.62 -736.38zm449.71 1272.19l-236.38 -242.1 -237.9 119.81 -181.33 -185.33 1134.27 -548.19 152.96 156.76 -573.52 1121.71 -182.48 -186.86 124.38 -235.8zm253.9 707.04c-74.28,-102.86 -119.8,-252 -89.9,-378.09l6.29 -26.67 263.61 -82.86 -16.19 80.19c-16.76,83.05 2.1,182.48 52,251.43 38.86,53.71 91.62,97.71 153.91,52.57 141.52,-102.09 -239.81,-426.28 112,-680.18 184.18,-132.77 391.99,-99.62 526.28,86.09 63.24,87.62 100,202.48 89.52,310.47l-3.05 31.05 -252.76 87.05 2.86 -70.67c2.86,-69.52 -11.62,-145.71 -52.95,-203.04 -41.53,-57.53 -93.91,-91.62 -157.33,-45.91 -138.67,100 239.23,425.14 -108.77,676.38 -183.61,132.38 -392.18,96.76 -525.52,-87.81zm-8153.47 -2410.84l96.76 181.52 147.05 -78.28c64.57,-34.48 90.85,-76.77 54.66,-144.96 -36.76,-68.76 -85.9,-71.42 -151.61,-36.57l-146.86 78.29zm216.76 406.85l103.43 193.91 173.52 -92.57c72.19,-38.48 102.29,-80.58 61.52,-157.34 -40.76,-76.38 -92.57,-75.23 -164.57,-36.76l-173.9 92.76zm1244.37 -318.66l143.62 -44c174.48,-53.34 191.62,-233.91 144.76,-387.24 -46.66,-152.57 -162.28,-293.33 -336.57,-239.81l-143.8 44 191.99 627.05zm2213.32 -955.04l-19.04 340.18 128.95 7.05c110.09,6.29 157.33,-57.14 163.04,-162.09 5.91,-105.53 -34.09,-171.62 -143.99,-177.72l-128.96 -7.42zm2810.65 1179.8l153.34 83.24 52.95 -281.53 -206.29 198.29zm1419.23 1028.18l122.1 124.95 133.9 -253.33 -256 128.38z"/>
  <path class="fil0" d="M3844.9 13411.13l725.33 -289.9 176.57 200 -1158.47 462.66 -152.19 -172.38 602.1 -1093.14 185.52 210.86 -378.86 681.9zm675.24 916l-288.38 -237.53 -226.09 136.95 -210.48 -173.71 1081.9 -630.66 176.57 146.09 -411.62 1182.85 -212.38 -175.23 90.48 -248.76zm476 668.18c-112.77,-68 -224.77,-190.28 -253.72,-321.71l-6.47 -29.33 210.66 -169.72 18.86 72.57c22.86,88.38 88.57,175.81 166.66,223.24 53.91,32.57 132.96,65.14 173.72,-2.29 84.19,-139.8 -419.24,-323.04 -201.72,-682.85 122.67,-203.24 341.15,-226.85 537.91,-107.81 96.57,58.29 183.61,152 222.85,258.48l11.81 31.62 -200.38 170.85 -25.9 -60.38c-30.1,-69.71 -79.81,-136.38 -145.34,-176.19 -58.66,-35.43 -131.8,-59.62 -173.9,9.91 -82.28,136.57 418.09,321.71 203.05,677.71 -122.29,202.85 -342.48,224.19 -538.09,105.9zm918.66 489.14c-299.24,-139.62 -347.43,-487.23 -217.15,-766.28 129.15,-276.76 428.38,-465.33 728,-325.52 144.19,67.24 240.19,189.71 268,346.66l6.67 37.34 -236.57 104.57 -12.58 -57.91c-17.52,-80.95 -57.71,-145.14 -133.9,-180.76 -161.9,-75.62 -313.9,40.76 -381.9,186.29 -68.57,147.23 -60.57,336.38 102.66,412.57 76.19,35.61 151.62,24.38 224.57,-14.86l52.96 -28.57 70.85 250.85 -32.57 18.86c-138.47,79.62 -294.85,84.19 -439.04,16.76zm961.7 334.86c-321.14,-84.96 -431.99,-418.86 -353.33,-716.76 78.1,-295.43 341.91,-533.33 661.33,-448.95 321.71,85.14 432.19,418.28 353.33,716.95 -78.47,296 -341.14,533.33 -661.33,448.76zm944.95 183.04l56 -1173.51 434.66 20.76c337.34,16.19 517.33,291.04 502.29,611.99 -15.24,321.72 -220.95,577.33 -558.28,561.33l-434.67 -20.57zm1703.04 -271.61l-372 36.19 -62.48 256.95 -271.61 26.47 317.14 -1211.04 228 -22.47 547.23 1127.04 -274.09 26.47 -112.19 -239.61zm1223.23 -335.05l-103.81 -342.28 241.52 -72.96 144.19 476.76 -9.71 17.72c-67.24,123.43 -186.1,214.28 -319.81,254.85 -317.9,96.38 -586.85,-128.38 -676.57,-424.76 -90.66,-299.42 10.48,-633.33 329.72,-729.9 152.76,-46.28 306.28,-24.19 433.9,73.15l29.9 22.85 -101.14 236.38 -48.57 -32.57c-71.81,-48.38 -144.19,-66.67 -227.81,-41.33 -175.81,53.33 -213.52,235.23 -165.14,395.23 47.43,156.57 182.47,289.91 355.23,237.72 46.1,-13.91 85.72,-36.57 118.1,-70.86zm952.56 -371.43l-331.99 171.05 36.76 261.71 -243.05 125.14 -152.38 -1242.84 203.81 -104.96 924.57 845.14 -244.95 126.1 -192.77 -181.34zm855.05 -925.71l87.04 473.91 -107.23 79.42 -424 -214.47 326.85 440.19 -203.04 151.04 -700.57 -942.66 171.24 -127.42 647.04 331.99 -136.19 -711.61 171.43 -127.43 701.52 941.9 -201.9 150.48 -332.19 -445.34zm941.13 -479.61l-255.61 272.38 122.47 234.28 -186.66 199.24 -560.38 -1119.8 156.76 -167.24 1154.28 486.28 -188.38 200.95 -242.48 -106.09zm-9034.23 331.62l150.67 124.38 100.95 -276.38 -251.62 152zm2483.8 1605.13c170.66,45.14 298.09,-100.38 338.09,-252.19 40.38,-152.38 1.52,-341.52 -169.14,-386.47 -170.67,-45.15 -298.09,100.95 -338.09,252.57 -40.38,152.38 -1.34,341.14 169.14,386.09zm1149.13 193.14l165.91 7.81c187.23,8.95 283.04,-133.14 291.23,-307.43 8.38,-173.9 -73.71,-325.14 -260.57,-334.09l-166.09 -8 -30.48 641.71zm1121.71 -243.05l194.67 -19.04 -124.76 -266.48 -69.91 285.52zm2114.65 -576.94l173.72 -89.53 -214.1 -201.52 40.38 291.05zm1785.33 -1276.19l133.9 -142.85 -269.52 -117.91 135.62 260.76z"/>
 </g>
</svg>
